# xmcd
#
# Track frame offsets:
#	150
#	11855
#	21557
#	30817
#	39922
#	49215
#	58572
#	71797
#	83657
#	94600
#	109497
#	126765
#	140542
#	155095
#	167555
#
# Disc length: 2422
#
# Revision: 2
# Processed by: cddbd v1.5.1PL0 Copyright (c) Steve Scherf et al.
# Submitted via: audiograbber 1.80.04
# Normalized: r1:DSETVAR1
#
DISCID=c709740f
DTITLE=Various Artist - Women Of Country
DYEAR=1900
DGENRE=
TTITLE0=Patsy Cline - Walkin' After Midnight
TTITLE1=Loretta Lynn - Don't Come Home A' Drinkin
TTITLE2=Tammy Wynette - Your Good Girl's Gonna Go Bad
TTITLE3=Dottie West - Before The Ring On Your Finger Turns Green
TTITLE4=Connie Smith - I'll Come Runnin'
TTITLE5=Barbara Mandrell - Tonight My Baby's Coming Home
TTITLE6=Dolly Parton - I Will Always Love You
TTITLE7=Emmylou Harris - If I Could Only Win Your Love
TTITLE8=Tanya Tucker - Would You Lay With Me
TTITLE9=Rosanne Cash - Seven Year Ache
TTITLE10=K.T. Oslin - Come Next Monday
TTITLE11=Patty Loveless - Hurt Me Bad
TTITLE12=Pam Tillis - Cleopatra, Queen Of Denial
TTITLE13=Lorrie Morgan - What Part Of No
TTITLE14=I'm On Your Side - Kathy Mattea
EXTD=
EXTT0=
EXTT1=
EXTT2=
EXTT3=
EXTT4=
EXTT5=
EXTT6=
EXTT7=
EXTT8=
EXTT9=
EXTT10=
EXTT11=
EXTT12=
EXTT13=
EXTT14=
PLAYORDER=
